<svg width="86" height="86" viewBox="0 0 86 86" fill="none" xmlns="http://www.w3.org/2000/svg">
<circle cx="43" cy="43" r="40.5" stroke="url(#paint0_linear_38_634)" stroke-width="5"/>
<path d="M25.659 50.5788C26.1875 50.5788 26.669 50.6258 27.1035 50.7198C27.5425 50.8094 27.9187 50.9595 28.2322 51.17C28.5458 51.3805 28.7877 51.6582 28.9579 52.0031C29.1281 52.348 29.2132 52.7735 29.2132 53.2797C29.2132 53.3917 29.1997 53.5171 29.1729 53.6559C29.1505 53.7948 29.1102 53.9381 29.0519 54.0859C28.9937 54.2338 28.9176 54.3793 28.8235 54.5227C28.7339 54.6615 28.6219 54.7914 28.4876 54.9123C28.3532 55.0333 28.1942 55.1363 28.0105 55.2214C27.8314 55.3065 27.6253 55.3647 27.3924 55.3961C27.7731 55.4364 28.0934 55.5193 28.3532 55.6447C28.6175 55.7701 28.8302 55.9314 28.9915 56.1284C29.1572 56.3255 29.2759 56.5517 29.3476 56.807C29.4237 57.0624 29.4618 57.3401 29.4618 57.6401C29.4618 58.1732 29.3565 58.6143 29.146 58.9638C28.94 59.3086 28.6533 59.5818 28.286 59.7834C27.9187 59.985 27.4865 60.1239 26.9893 60.2C26.4966 60.2807 25.9658 60.3209 25.3969 60.3209C24.9401 60.3209 24.5123 60.3097 24.1137 60.2874C23.7195 60.2694 23.3141 60.2359 22.8976 60.1866C22.696 60.1641 22.5572 60.1104 22.481 60.0253C22.4093 59.9402 22.3735 59.8014 22.3735 59.6088V51.6538L21.0768 51.7545V51.1566C21.2828 51.0715 21.5516 50.9953 21.883 50.9281C22.219 50.8565 22.5907 50.796 22.9983 50.7467C23.4104 50.693 23.8427 50.6527 24.2951 50.6258C24.7519 50.5989 25.2066 50.5832 25.659 50.5788ZM25.8807 55.9067C25.7418 55.8978 25.6075 55.8933 25.4776 55.8933C25.3477 55.8933 25.22 55.8933 25.0946 55.8933C24.9378 55.8933 24.7922 55.8955 24.6579 55.9C24.528 55.9 24.4138 55.9022 24.3152 55.9067C24.1988 55.9112 24.0935 55.9157 23.9994 55.9201V59.2392C24.1204 59.2795 24.2615 59.3154 24.4227 59.3467C24.5616 59.3736 24.7295 59.3982 24.9266 59.4207C25.1237 59.443 25.3499 59.4542 25.6052 59.4542C26.08 59.4542 26.4652 59.4027 26.7608 59.2997C27.0565 59.1922 27.2849 59.0556 27.4462 58.8899C27.6119 58.7242 27.7216 58.5405 27.7754 58.3389C27.8336 58.1374 27.8627 57.9403 27.8627 57.7476C27.8627 57.4834 27.8269 57.2438 27.7552 57.0288C27.688 56.8093 27.5761 56.6211 27.4193 56.4643C27.267 56.3032 27.0632 56.1755 26.8079 56.0814C26.557 55.9874 26.248 55.9292 25.8807 55.9067ZM25.6455 51.5059C25.4126 51.5059 25.1954 51.5104 24.9938 51.5194C24.7922 51.5239 24.6176 51.5306 24.4697 51.5395C24.3219 51.5485 24.2055 51.5575 24.1204 51.5664C24.0397 51.5754 23.9994 51.5821 23.9994 51.5866V54.9594C24.2144 54.9997 24.407 55.0288 24.5772 55.0467C24.7519 55.0602 24.911 55.0669 25.0543 55.0669C25.538 55.0669 25.9456 55.0198 26.2771 54.9258C26.6085 54.8272 26.8773 54.6951 27.0833 54.5294C27.2894 54.3636 27.4372 54.171 27.5268 53.9516C27.6208 53.7321 27.6679 53.4992 27.6679 53.2528C27.6679 52.9841 27.6298 52.7422 27.5537 52.5272C27.4775 52.3122 27.3588 52.1308 27.1976 51.983C27.0363 51.8307 26.828 51.7142 26.5727 51.6336C26.3174 51.553 26.0083 51.5104 25.6455 51.5059ZM34.7011 59.5282H35.8701V60.032C35.794 60.0724 35.6887 60.1104 35.5544 60.1463C35.4244 60.1821 35.2789 60.2134 35.1176 60.2403C34.9564 60.2672 34.7884 60.2874 34.6137 60.3008C34.439 60.3142 34.2711 60.3209 34.1098 60.3209C33.9709 60.3209 33.8433 60.312 33.7269 60.2941C33.6104 60.2807 33.5096 60.2493 33.4245 60.2C33.3394 60.1552 33.2722 60.0925 33.223 60.0118C33.1737 59.9268 33.149 59.8148 33.149 59.6759V50.6661H31.9598V50.1555C32.0539 50.1152 32.186 50.0771 32.3562 50.0413C32.5309 50.0054 32.719 49.9763 32.9206 49.9539C33.1222 49.9315 33.3282 49.9136 33.5387 49.9002C33.7537 49.8867 33.9486 49.88 34.1232 49.88C34.2173 49.88 34.3002 49.8822 34.3719 49.8867C34.4435 49.8912 34.504 49.9046 34.5532 49.927C34.6025 49.9494 34.6384 49.9853 34.6607 50.0345C34.6876 50.0793 34.7011 50.1465 34.7011 50.2361V59.5282ZM42.8025 53.965V53.4544C42.8966 53.4141 43.0287 53.3782 43.199 53.3469C43.3692 53.311 43.555 53.2819 43.7566 53.2595C43.9627 53.2371 44.171 53.2192 44.3815 53.2058C44.5965 53.1923 44.7913 53.1856 44.9659 53.1856C45.06 53.1856 45.1429 53.1879 45.2146 53.1923C45.2862 53.1968 45.3467 53.2103 45.3959 53.2327C45.4452 53.2551 45.4811 53.2909 45.5034 53.3402C45.5304 53.385 45.5438 53.4521 45.5438 53.5417V59.5282H46.7129V60.032C46.6367 60.0724 46.5315 60.1104 46.3971 60.1463C46.2672 60.1821 46.1216 60.2134 45.9604 60.2403C45.7991 60.2672 45.6311 60.2874 45.4565 60.3008C45.2817 60.3142 45.1138 60.3209 44.9525 60.3209C44.8137 60.3209 44.686 60.312 44.5696 60.2941C44.4531 60.2807 44.3501 60.2493 44.2605 60.2C44.1754 60.1552 44.1082 60.0925 44.059 60.0118C44.0097 59.9268 43.985 59.8148 43.985 59.6759V59.6222C43.985 59.6177 43.9447 59.6357 43.8641 59.6759C43.7879 59.7118 43.6804 59.7588 43.5416 59.817C43.4072 59.8753 43.2482 59.938 43.0646 60.0051C42.8854 60.0724 42.6928 60.1373 42.4867 60.2C42.2807 60.2582 42.0679 60.3075 41.8484 60.3478C41.629 60.3882 41.4162 60.4083 41.2102 60.4083C40.8071 60.4083 40.4801 60.3545 40.2292 60.247C39.9785 60.144 39.7836 59.9984 39.6447 59.8103C39.5104 59.6177 39.4185 59.3915 39.3692 59.1317C39.32 58.8674 39.2954 58.5808 39.2954 58.2717V53.965H38.1129V53.4544C38.2069 53.4141 38.339 53.3782 38.5092 53.3469C38.6794 53.311 38.8654 53.2819 39.0669 53.2595C39.2684 53.2371 39.4745 53.2192 39.685 53.2058C39.9 53.1923 40.0949 53.1856 40.2696 53.1856C40.3636 53.1856 40.4465 53.1879 40.5182 53.1923C40.5898 53.1968 40.6503 53.2103 40.6996 53.2327C40.7488 53.2551 40.7847 53.2909 40.8071 53.3402C40.834 53.385 40.8474 53.4521 40.8474 53.5417V58.1374C40.8474 58.3658 40.8586 58.5607 40.8809 58.7218C40.9079 58.8832 40.9549 59.0153 41.0221 59.1183C41.0937 59.2213 41.19 59.2974 41.3109 59.3467C41.4364 59.3915 41.5954 59.4139 41.788 59.4139C41.9 59.4139 42.0321 59.4049 42.1844 59.387C42.3412 59.3646 42.5002 59.34 42.6615 59.3132C42.8272 59.2818 42.9885 59.2504 43.1452 59.2191C43.3065 59.1832 43.4498 59.1518 43.5752 59.125C43.7006 59.0936 43.7992 59.069 43.8708 59.0511C43.9469 59.0287 43.985 59.0175 43.985 59.0175V53.965H42.8025ZM54.3776 56.2763C54.4044 56.1866 54.4224 56.0971 54.4314 56.0075C54.4403 55.9179 54.4448 55.8239 54.4448 55.7253C54.4448 55.5058 54.4067 55.2864 54.3306 55.0669C54.2589 54.8429 54.1514 54.6414 54.0081 54.4622C53.8692 54.283 53.6945 54.1375 53.484 54.0255C53.2779 53.9135 53.0406 53.8575 52.7718 53.8575C52.427 53.8575 52.138 53.9247 51.9051 54.0591C51.6767 54.189 51.4885 54.3659 51.3407 54.5898C51.1974 54.8093 51.0921 55.0669 51.0249 55.3625C50.9577 55.6536 50.9152 55.9582 50.8973 56.2763H54.3776ZM49.3318 56.76C49.3318 56.227 49.417 55.7388 49.5871 55.2953C49.7618 54.8474 50.0104 54.4622 50.3329 54.1397C50.6599 53.8172 51.0585 53.5664 51.5289 53.3872C51.9992 53.2035 52.5322 53.1117 53.1279 53.1117C53.5758 53.1117 53.9767 53.1834 54.3306 53.3267C54.6845 53.4701 54.9845 53.6627 55.2309 53.9045C55.4772 54.1464 55.6654 54.4264 55.7952 54.7444C55.9252 55.0624 55.9901 55.3939 55.9901 55.7388C55.9901 55.9 55.9767 56.0613 55.9498 56.2225C55.9229 56.3838 55.8714 56.5294 55.7952 56.6592C55.7191 56.7892 55.6116 56.8967 55.4727 56.9817C55.3339 57.0624 55.1525 57.1026 54.9285 57.1026H50.9107C50.9555 57.5058 51.0608 57.8618 51.2265 58.1709C51.3922 58.48 51.605 58.742 51.8648 58.957C52.1246 59.1676 52.4247 59.3266 52.7651 59.4341C53.1055 59.5416 53.4728 59.5953 53.8669 59.5953C54.1357 59.5953 54.4135 59.5729 54.7001 59.5282C54.9867 59.4789 55.2824 59.4049 55.5869 59.3064L55.8086 59.7566C55.625 59.882 55.4279 59.9895 55.2174 60.0791C55.007 60.1686 54.7897 60.2403 54.5657 60.2941C54.3417 60.3523 54.1133 60.3949 53.8804 60.4217C53.6475 60.4486 53.419 60.462 53.1951 60.462C52.7024 60.462 52.2231 60.3836 51.7573 60.2268C51.296 60.0746 50.8839 59.8439 50.521 59.5349C50.1627 59.2258 49.8738 58.8406 49.6543 58.3792C49.4393 57.9179 49.3318 57.3782 49.3318 56.76ZM59.4354 58.5741C59.5564 58.6636 59.702 58.7711 59.8722 58.8966C60.0469 59.022 60.2372 59.1429 60.4433 59.2593C60.6493 59.3714 60.8666 59.4699 61.095 59.555C61.328 59.6357 61.5631 59.6759 61.8004 59.6759C61.9483 59.6759 62.0894 59.6558 62.2237 59.6155C62.3626 59.5707 62.4858 59.5057 62.5933 59.4207C62.7008 59.3355 62.7859 59.2325 62.8486 59.1116C62.9113 58.9861 62.9427 58.8451 62.9427 58.6883C62.9427 58.5046 62.8822 58.3434 62.7612 58.2045C62.6448 58.0657 62.4992 57.9425 62.3245 57.835C62.1543 57.7275 61.9707 57.6334 61.7736 57.5528C61.5765 57.4677 61.4018 57.3916 61.2495 57.3243C60.9852 57.2079 60.721 57.087 60.4567 56.9616C60.197 56.8361 59.9618 56.6884 59.7512 56.5182C59.5452 56.3434 59.375 56.1374 59.2406 55.9C59.1107 55.6626 59.0458 55.3715 59.0458 55.0266C59.0458 54.6817 59.1309 54.3883 59.3011 54.1464C59.4758 53.9045 59.6997 53.7075 59.9729 53.5552C60.2507 53.3984 60.5597 53.2864 60.9002 53.2192C61.2406 53.1476 61.5765 53.1117 61.9079 53.1117C62.114 53.1117 62.3312 53.1207 62.5597 53.1386C62.7926 53.1565 63.0054 53.1879 63.1979 53.2327C63.3951 53.273 63.5563 53.3267 63.6817 53.3939C63.8116 53.4611 63.8766 53.5417 63.8766 53.6358C63.8766 53.6716 63.8631 53.7186 63.8362 53.7769L63.3794 54.657C63.2943 54.6033 63.1778 54.5339 63.03 54.4488C62.8867 54.3592 62.7232 54.2741 62.5395 54.1934C62.3559 54.1128 62.1588 54.0434 61.9483 53.9852C61.7422 53.9269 61.5317 53.8978 61.3167 53.8978C61.0077 53.8978 60.7546 53.9695 60.5575 54.1128C60.3605 54.2561 60.2619 54.46 60.2619 54.7242C60.2619 54.9303 60.3201 55.1094 60.4366 55.2617C60.553 55.414 60.7053 55.5506 60.8935 55.6716C61.086 55.788 61.3033 55.8955 61.5452 55.9941C61.7915 56.0882 62.0424 56.1866 62.2977 56.2897C62.5529 56.3927 62.8016 56.5024 63.0435 56.6189C63.2898 56.7354 63.507 56.872 63.6952 57.0288C63.8877 57.1811 64.0423 57.3602 64.1587 57.5663C64.2752 57.7678 64.3335 58.0074 64.3335 58.2851C64.3335 58.6794 64.2483 59.0108 64.0781 59.2795C63.908 59.5483 63.6862 59.7678 63.4129 59.938C63.1442 60.1037 62.8419 60.2224 62.506 60.2941C62.1745 60.3702 61.8475 60.4083 61.525 60.4083C61.2473 60.4083 60.9517 60.3769 60.6381 60.3142C60.3246 60.256 60.0357 60.1821 59.7714 60.0925C59.5072 59.9984 59.2877 59.8976 59.1129 59.7901C58.9427 59.6826 58.8577 59.5818 58.8577 59.4878C58.8577 59.4296 58.8711 59.3736 58.8979 59.3199L59.4354 58.5741Z" fill="url(#paint1_linear_38_634)"/>
<g clip-path="url(#clip0_38_634)">
<path d="M49.5701 24.1306H30.96L34.2039 40.42H46.3261L49.5701 24.1306Z" stroke="url(#paint2_linear_38_634)" stroke-width="5"/>
<path d="M35.2284 39.0035L33.8625 32.6295H46.6677L45.4725 39.0035H35.2284Z" fill="url(#paint3_linear_38_634)"/>
<path d="M51.4483 16.34C45.9848 16.34 45.3588 20.6485 44.9603 22.7141L51.4483 22.5371C51.1068 23.4224 50.6515 27.4357 50.0824 29.4424C50.9019 30.009 52.5865 29.5605 53.3264 29.2653C56.741 28.1322 58.1753 24.5674 58.0045 22.8558C57.7313 18.748 55.8874 16.8712 51.4483 16.34Z" fill="url(#paint4_linear_38_634)"/>
</g>
<defs>
<linearGradient id="paint0_linear_38_634" x1="-1.39521e-06" y1="42.8782" x2="87.5791" y2="42.8782" gradientUnits="userSpaceOnUse">
<stop stop-color="#D0D0D0"/>
<stop offset="1" stop-color="#6A6A6A"/>
</linearGradient>
<linearGradient id="paint1_linear_38_634" x1="34.8301" y1="48.16" x2="59.3251" y2="63.2343" gradientUnits="userSpaceOnUse">
<stop stop-color="#147FB0"/>
<stop offset="1" stop-color="#30BEEB"/>
</linearGradient>
<linearGradient id="paint2_linear_38_634" x1="28.5697" y1="33.1606" x2="54.8632" y2="32.8314" gradientUnits="userSpaceOnUse">
<stop stop-color="#FCAC5D"/>
<stop offset="1" stop-color="#FCDC5D"/>
</linearGradient>
<linearGradient id="paint3_linear_38_634" x1="48.5458" y1="33.8688" x2="35.9099" y2="34.3628" gradientUnits="userSpaceOnUse">
<stop stop-color="#FCDC5D"/>
<stop offset="1" stop-color="#FCAC5D"/>
</linearGradient>
<linearGradient id="paint4_linear_38_634" x1="55.0338" y1="26.2553" x2="43.9929" y2="18.1437" gradientUnits="userSpaceOnUse">
<stop stop-color="#FCAC5D"/>
<stop offset="1" stop-color="#FCF45D"/>
</linearGradient>
<clipPath id="clip0_38_634">
<rect width="30.96" height="26.66" fill="white" transform="translate(27.52 16.34)"/>
</clipPath>
</defs>
</svg>
