<svg width="354" height="353" viewBox="0 0 354 353" fill="none" xmlns="http://www.w3.org/2000/svg">
<path d="M351.5 176.5C351.5 272.591 273.38 350.5 177 350.5C80.6196 350.5 2.5 272.591 2.5 176.5C2.5 80.4091 80.6196 2.5 177 2.5C273.38 2.5 351.5 80.4091 351.5 176.5Z" stroke="url(#paint0_linear_38_622)" stroke-width="5"/>
<path d="M304 227C304.828 227 305.5 226.328 305.5 225.5C305.5 224.672 304.828 224 304 224L304 227ZM304 224L49.5 224L49.5 227L304 227L304 224Z" fill="url(#paint1_linear_38_622)"/>
<path d="M119.947 171.036C121.731 171.036 123.357 171.194 124.824 171.511C126.306 171.813 127.577 172.318 128.636 173.026C129.694 173.735 130.511 174.67 131.086 175.831C131.66 176.991 131.948 178.424 131.948 180.127C131.948 180.504 131.902 180.927 131.812 181.394C131.736 181.861 131.6 182.344 131.403 182.841C131.207 183.339 130.95 183.829 130.632 184.311C130.329 184.779 129.951 185.216 129.498 185.623C129.044 186.03 128.507 186.377 127.887 186.663C127.282 186.95 126.586 187.146 125.8 187.251C127.085 187.387 128.167 187.666 129.044 188.088C129.936 188.51 130.655 189.053 131.199 189.716C131.759 190.38 132.16 191.141 132.401 192C132.658 192.86 132.787 193.795 132.787 194.805C132.787 196.599 132.432 198.084 131.721 199.26C131.025 200.421 130.057 201.34 128.817 202.019C127.577 202.697 126.117 203.165 124.439 203.421C122.775 203.693 120.983 203.828 119.062 203.828C117.519 203.828 116.075 203.79 114.729 203.715C113.398 203.655 112.029 203.542 110.623 203.376C109.942 203.3 109.473 203.119 109.216 202.833C108.974 202.547 108.853 202.079 108.853 201.431V174.655L104.475 174.994V172.981C105.17 172.695 106.078 172.438 107.197 172.212C108.331 171.971 109.587 171.767 110.963 171.602C112.354 171.421 113.814 171.285 115.341 171.194C116.884 171.104 118.419 171.051 119.947 171.036ZM120.695 188.97C120.226 188.94 119.773 188.925 119.334 188.925C118.896 188.925 118.464 188.925 118.041 188.925C117.512 188.925 117.02 188.932 116.566 188.947C116.128 188.947 115.742 188.955 115.409 188.97C115.016 188.985 114.661 189 114.343 189.015V200.187C114.752 200.323 115.228 200.444 115.772 200.549C116.241 200.639 116.808 200.722 117.474 200.798C118.139 200.873 118.903 200.911 119.765 200.911C121.368 200.911 122.669 200.737 123.667 200.391C124.665 200.029 125.437 199.569 125.981 199.011C126.541 198.453 126.911 197.835 127.093 197.157C127.289 196.478 127.388 195.815 127.388 195.166C127.388 194.277 127.267 193.47 127.025 192.747C126.798 192.008 126.42 191.375 125.89 190.847C125.376 190.304 124.688 189.875 123.826 189.558C122.979 189.241 121.935 189.045 120.695 188.97ZM119.901 174.157C119.115 174.157 118.381 174.172 117.701 174.202C117.02 174.217 116.43 174.24 115.931 174.27C115.432 174.3 115.039 174.33 114.752 174.361C114.479 174.391 114.343 174.413 114.343 174.428V185.781C115.069 185.917 115.719 186.015 116.294 186.075C116.884 186.12 117.421 186.143 117.905 186.143C119.538 186.143 120.915 185.985 122.034 185.668C123.153 185.336 124.06 184.892 124.756 184.334C125.452 183.776 125.951 183.128 126.253 182.389C126.571 181.65 126.73 180.866 126.73 180.037C126.73 179.132 126.601 178.318 126.344 177.595C126.087 176.871 125.686 176.26 125.142 175.763C124.597 175.25 123.894 174.858 123.032 174.587C122.17 174.315 121.126 174.172 119.901 174.157ZM150.478 201.16H154.425V202.856C154.168 202.991 153.813 203.119 153.359 203.24C152.92 203.361 152.429 203.466 151.885 203.557C151.34 203.647 150.773 203.715 150.183 203.76C149.593 203.805 149.026 203.828 148.481 203.828C148.013 203.828 147.582 203.798 147.188 203.738C146.795 203.693 146.455 203.587 146.167 203.421C145.88 203.27 145.653 203.059 145.487 202.788C145.321 202.501 145.237 202.124 145.237 201.657V171.33H141.222V169.611C141.54 169.476 141.986 169.348 142.56 169.227C143.15 169.106 143.785 169.008 144.466 168.933C145.147 168.858 145.842 168.797 146.553 168.752C147.279 168.707 147.937 168.684 148.527 168.684C148.844 168.684 149.124 168.692 149.366 168.707C149.608 168.722 149.812 168.767 149.979 168.843C150.145 168.918 150.266 169.039 150.342 169.204C150.433 169.355 150.478 169.581 150.478 169.883V201.16ZM177.833 182.434V180.715C178.151 180.58 178.597 180.459 179.172 180.354C179.746 180.233 180.374 180.135 181.055 180.06C181.75 179.984 182.454 179.924 183.164 179.879C183.89 179.833 184.548 179.811 185.138 179.811C185.456 179.811 185.736 179.818 185.977 179.833C186.219 179.849 186.423 179.894 186.59 179.969C186.756 180.045 186.877 180.165 186.953 180.331C187.044 180.482 187.089 180.708 187.089 181.009V201.16H191.036V202.856C190.779 202.991 190.424 203.119 189.97 203.24C189.532 203.361 189.04 203.466 188.496 203.557C187.951 203.647 187.384 203.715 186.794 203.76C186.204 203.805 185.637 203.828 185.093 203.828C184.624 203.828 184.193 203.798 183.8 203.738C183.406 203.693 183.058 203.587 182.756 203.421C182.469 203.27 182.242 203.059 182.076 202.788C181.909 202.501 181.826 202.124 181.826 201.657V201.476C181.826 201.461 181.69 201.522 181.417 201.657C181.16 201.778 180.797 201.936 180.329 202.132C179.875 202.328 179.338 202.539 178.718 202.765C178.113 202.991 177.462 203.21 176.767 203.421C176.071 203.617 175.353 203.783 174.611 203.919C173.87 204.054 173.152 204.122 172.457 204.122C171.095 204.122 169.991 203.941 169.144 203.579C168.297 203.233 167.639 202.743 167.17 202.109C166.717 201.461 166.407 200.7 166.24 199.825C166.074 198.936 165.991 197.971 165.991 196.93V182.434H161.998V180.715C162.316 180.58 162.762 180.459 163.336 180.354C163.911 180.233 164.539 180.135 165.22 180.06C165.9 179.984 166.596 179.924 167.307 179.879C168.033 179.833 168.691 179.811 169.28 179.811C169.598 179.811 169.878 179.818 170.12 179.833C170.362 179.849 170.566 179.894 170.732 179.969C170.899 180.045 171.02 180.165 171.095 180.331C171.186 180.482 171.231 180.708 171.231 181.009V196.478C171.231 197.247 171.269 197.903 171.345 198.446C171.436 198.989 171.594 199.433 171.821 199.78C172.063 200.127 172.388 200.383 172.797 200.549C173.22 200.7 173.757 200.775 174.407 200.775C174.785 200.775 175.232 200.745 175.746 200.685C176.275 200.609 176.812 200.526 177.357 200.436C177.916 200.33 178.461 200.225 178.99 200.119C179.535 199.999 180.018 199.893 180.442 199.803C180.865 199.697 181.198 199.614 181.44 199.554C181.697 199.478 181.826 199.441 181.826 199.441V182.434H177.833ZM216.917 190.214C217.008 189.912 217.068 189.611 217.099 189.309C217.129 189.008 217.144 188.691 217.144 188.359C217.144 187.621 217.015 186.882 216.758 186.143C216.516 185.389 216.153 184.711 215.669 184.108C215.2 183.505 214.61 183.015 213.9 182.638C213.204 182.261 212.402 182.072 211.495 182.072C210.331 182.072 209.355 182.298 208.568 182.751C207.797 183.188 207.162 183.784 206.663 184.537C206.179 185.276 205.823 186.143 205.596 187.138C205.37 188.118 205.226 189.143 205.165 190.214H216.917ZM199.88 191.842C199.88 190.048 200.167 188.405 200.742 186.912C201.331 185.404 202.171 184.108 203.26 183.022C204.364 181.937 205.71 181.092 207.298 180.489C208.886 179.871 210.686 179.562 212.697 179.562C214.21 179.562 215.563 179.803 216.758 180.286C217.953 180.768 218.966 181.417 219.798 182.231C220.63 183.045 221.265 183.987 221.704 185.058C222.142 186.128 222.362 187.244 222.362 188.405C222.362 188.947 222.316 189.49 222.226 190.033C222.135 190.576 221.961 191.066 221.704 191.503C221.447 191.94 221.084 192.302 220.615 192.588C220.146 192.86 219.533 192.995 218.777 192.995H205.211C205.362 194.352 205.717 195.551 206.277 196.591C206.837 197.632 207.555 198.514 208.432 199.237C209.31 199.946 210.323 200.481 211.472 200.843C212.622 201.205 213.862 201.386 215.193 201.386C216.1 201.386 217.038 201.31 218.006 201.16C218.974 200.994 219.972 200.745 221 200.413L221.749 201.929C221.129 202.351 220.463 202.712 219.753 203.014C219.042 203.315 218.309 203.557 217.552 203.738C216.796 203.934 216.025 204.077 215.238 204.167C214.452 204.258 213.68 204.303 212.924 204.303C211.261 204.303 209.642 204.039 208.069 203.511C206.512 202.999 205.12 202.222 203.895 201.182C202.685 200.142 201.71 198.845 200.969 197.292C200.243 195.74 199.88 193.923 199.88 191.842ZM233.995 197.948C234.404 198.25 234.895 198.611 235.47 199.034C236.06 199.456 236.702 199.863 237.398 200.255C238.094 200.632 238.827 200.963 239.599 201.25C240.385 201.522 241.179 201.657 241.981 201.657C242.48 201.657 242.956 201.589 243.41 201.453C243.879 201.303 244.295 201.084 244.658 200.798C245.021 200.511 245.308 200.164 245.52 199.757C245.732 199.335 245.838 198.86 245.838 198.333C245.838 197.714 245.633 197.172 245.225 196.704C244.832 196.237 244.34 195.822 243.75 195.461C243.176 195.099 242.556 194.782 241.89 194.511C241.225 194.224 240.635 193.968 240.12 193.742C239.228 193.35 238.336 192.943 237.443 192.521C236.566 192.098 235.772 191.601 235.061 191.028C234.366 190.44 233.791 189.746 233.337 188.947C232.899 188.148 232.679 187.168 232.679 186.007C232.679 184.846 232.967 183.859 233.542 183.045C234.131 182.231 234.887 181.567 235.81 181.055C236.748 180.527 237.791 180.15 238.941 179.924C240.09 179.683 241.225 179.562 242.344 179.562C243.039 179.562 243.773 179.592 244.545 179.653C245.331 179.713 246.049 179.818 246.699 179.969C247.365 180.105 247.909 180.286 248.333 180.512C248.772 180.738 248.991 181.009 248.991 181.326C248.991 181.447 248.946 181.605 248.855 181.801L247.312 184.764C247.025 184.583 246.631 184.349 246.132 184.062C245.649 183.761 245.097 183.475 244.476 183.203C243.856 182.932 243.191 182.698 242.48 182.502C241.784 182.306 241.073 182.208 240.347 182.208C239.304 182.208 238.449 182.449 237.784 182.932C237.118 183.414 236.786 184.1 236.786 184.99C236.786 185.683 236.982 186.286 237.375 186.799C237.769 187.312 238.283 187.771 238.918 188.178C239.568 188.57 240.302 188.932 241.119 189.264C241.95 189.581 242.798 189.912 243.66 190.259C244.522 190.606 245.361 190.975 246.178 191.367C247.01 191.759 247.743 192.219 248.378 192.747C249.029 193.259 249.55 193.862 249.944 194.556C250.337 195.234 250.534 196.041 250.534 196.976C250.534 198.303 250.246 199.418 249.672 200.323C249.097 201.227 248.348 201.966 247.425 202.539C246.518 203.097 245.497 203.496 244.363 203.738C243.244 203.994 242.14 204.122 241.051 204.122C240.113 204.122 239.115 204.016 238.056 203.805C236.997 203.609 236.022 203.361 235.13 203.059C234.237 202.743 233.496 202.403 232.906 202.041C232.332 201.68 232.044 201.34 232.044 201.024C232.044 200.828 232.09 200.639 232.18 200.459L233.995 197.948Z" fill="url(#paint2_linear_38_622)"/>
<path d="M212.125 75.5H144L155.875 133H200.25L212.125 75.5Z" stroke="url(#paint3_linear_38_622)" stroke-width="5"/>
<path d="M159.625 128L154.625 105.5H201.5L197.125 128H159.625Z" fill="url(#paint4_linear_38_622)"/>
<path d="M219 48C199 48 196.708 63.2084 195.25 70.5L219 69.875C217.75 73 216.083 87.1667 214 94.25C217 96.25 223.167 94.6667 225.875 93.625C238.375 89.625 243.625 77.0417 243 71C242 56.5 235.25 49.875 219 48Z" fill="url(#paint5_linear_38_622)"/>
<g clip-path="url(#clip0_38_622)">
<path d="M99.084 242.242V243.278H96.424V252H95.15V243.278H92.476V242.242H99.084ZM110.97 242.242V252H109.696V247.576H104.726V252H103.452V242.242H104.726V246.526H109.696V242.242H110.97ZM117.22 243.278V246.54H120.776V247.59H117.22V250.95H121.196V252H115.946V242.228H121.196V243.278H117.22ZM135.494 242.242C136.558 242.242 137.477 242.443 138.252 242.844C139.036 243.236 139.633 243.801 140.044 244.538C140.464 245.275 140.674 246.143 140.674 247.142C140.674 248.141 140.464 249.009 140.044 249.746C139.633 250.474 139.036 251.034 138.252 251.426C137.477 251.809 136.558 252 135.494 252H132.456V242.242H135.494ZM135.494 250.95C136.754 250.95 137.715 250.619 138.378 249.956C139.04 249.284 139.372 248.346 139.372 247.142C139.372 245.929 139.036 244.981 138.364 244.3C137.701 243.619 136.744 243.278 135.494 243.278H133.73V250.95H135.494ZM150.292 252L147.968 248.01H146.428V252H145.154V242.242H148.304C149.041 242.242 149.662 242.368 150.166 242.62C150.679 242.872 151.062 243.213 151.314 243.642C151.566 244.071 151.692 244.561 151.692 245.112C151.692 245.784 151.496 246.377 151.104 246.89C150.721 247.403 150.143 247.744 149.368 247.912L151.818 252H150.292ZM146.428 246.988H148.304C148.995 246.988 149.513 246.82 149.858 246.484C150.203 246.139 150.376 245.681 150.376 245.112C150.376 244.533 150.203 244.085 149.858 243.768C149.522 243.451 149.004 243.292 148.304 243.292H146.428V246.988ZM157.746 242.242V252H156.472V242.242H157.746ZM170.389 252H169.115L163.991 244.23V252H162.717V242.228H163.991L169.115 249.984V242.228H170.389V252ZM180.653 252L176.635 247.548V252H175.361V242.242H176.635V246.764L180.667 242.242H182.277L177.853 247.128L182.319 252H180.653ZM196.168 252.098C195.524 252.098 194.945 251.986 194.432 251.762C193.928 251.529 193.531 251.211 193.242 250.81C192.953 250.399 192.803 249.928 192.794 249.396H194.152C194.199 249.853 194.385 250.241 194.712 250.558C195.048 250.866 195.533 251.02 196.168 251.02C196.775 251.02 197.251 250.871 197.596 250.572C197.951 250.264 198.128 249.872 198.128 249.396C198.128 249.023 198.025 248.719 197.82 248.486C197.615 248.253 197.358 248.075 197.05 247.954C196.742 247.833 196.327 247.702 195.804 247.562C195.16 247.394 194.642 247.226 194.25 247.058C193.867 246.89 193.536 246.629 193.256 246.274C192.985 245.91 192.85 245.425 192.85 244.818C192.85 244.286 192.985 243.815 193.256 243.404C193.527 242.993 193.905 242.676 194.39 242.452C194.885 242.228 195.449 242.116 196.084 242.116C196.999 242.116 197.745 242.345 198.324 242.802C198.912 243.259 199.243 243.866 199.318 244.622H197.918C197.871 244.249 197.675 243.922 197.33 243.642C196.985 243.353 196.527 243.208 195.958 243.208C195.426 243.208 194.992 243.348 194.656 243.628C194.32 243.899 194.152 244.281 194.152 244.776C194.152 245.131 194.25 245.42 194.446 245.644C194.651 245.868 194.899 246.041 195.188 246.162C195.487 246.274 195.902 246.405 196.434 246.554C197.078 246.731 197.596 246.909 197.988 247.086C198.38 247.254 198.716 247.52 198.996 247.884C199.276 248.239 199.416 248.724 199.416 249.34C199.416 249.816 199.29 250.264 199.038 250.684C198.786 251.104 198.413 251.445 197.918 251.706C197.423 251.967 196.84 252.098 196.168 252.098ZM208.515 252.098C207.61 252.098 206.784 251.888 206.037 251.468C205.29 251.039 204.698 250.446 204.259 249.69C203.83 248.925 203.615 248.066 203.615 247.114C203.615 246.162 203.83 245.308 204.259 244.552C204.698 243.787 205.29 243.194 206.037 242.774C206.784 242.345 207.61 242.13 208.515 242.13C209.43 242.13 210.26 242.345 211.007 242.774C211.754 243.194 212.342 243.782 212.771 244.538C213.2 245.294 213.415 246.153 213.415 247.114C213.415 248.075 213.2 248.934 212.771 249.69C212.342 250.446 211.754 251.039 211.007 251.468C210.26 251.888 209.43 252.098 208.515 252.098ZM208.515 250.992C209.196 250.992 209.808 250.833 210.349 250.516C210.9 250.199 211.329 249.746 211.637 249.158C211.954 248.57 212.113 247.889 212.113 247.114C212.113 246.33 211.954 245.649 211.637 245.07C211.329 244.482 210.904 244.029 210.363 243.712C209.822 243.395 209.206 243.236 208.515 243.236C207.824 243.236 207.208 243.395 206.667 243.712C206.126 244.029 205.696 244.482 205.379 245.07C205.071 245.649 204.917 246.33 204.917 247.114C204.917 247.889 205.071 248.57 205.379 249.158C205.696 249.746 206.126 250.199 206.667 250.516C207.218 250.833 207.834 250.992 208.515 250.992ZM217.421 247.114C217.421 246.162 217.635 245.308 218.065 244.552C218.494 243.787 219.077 243.189 219.815 242.76C220.561 242.331 221.387 242.116 222.293 242.116C223.357 242.116 224.285 242.373 225.079 242.886C225.872 243.399 226.451 244.127 226.815 245.07H225.289C225.018 244.482 224.626 244.029 224.113 243.712C223.609 243.395 223.002 243.236 222.293 243.236C221.611 243.236 221 243.395 220.459 243.712C219.917 244.029 219.493 244.482 219.185 245.07C218.877 245.649 218.723 246.33 218.723 247.114C218.723 247.889 218.877 248.57 219.185 249.158C219.493 249.737 219.917 250.185 220.459 250.502C221 250.819 221.611 250.978 222.293 250.978C223.002 250.978 223.609 250.824 224.113 250.516C224.626 250.199 225.018 249.746 225.289 249.158H226.815C226.451 250.091 225.872 250.815 225.079 251.328C224.285 251.832 223.357 252.084 222.293 252.084C221.387 252.084 220.561 251.874 219.815 251.454C219.077 251.025 218.494 250.432 218.065 249.676C217.635 248.92 217.421 248.066 217.421 247.114ZM232.785 242.242V252H231.511V242.242H232.785ZM239.031 243.278V246.54H242.587V247.59H239.031V250.95H243.007V252H237.757V242.228H243.007V243.278H239.031ZM253.74 242.242V243.278H251.08V252H249.806V243.278H247.132V242.242H253.74ZM264.94 242.242L261.762 248.318V252H260.488V248.318L257.296 242.242H258.71L261.118 247.184L263.526 242.242H264.94Z" fill="#5BD8FF"/>
</g>
<defs>
<linearGradient id="paint0_linear_38_622" x1="-5.74308e-06" y1="176" x2="360.5" y2="176" gradientUnits="userSpaceOnUse">
<stop stop-color="#DCDCDC"/>
<stop offset="1" stop-color="#585858"/>
</linearGradient>
<linearGradient id="paint1_linear_38_622" x1="42" y1="226.016" x2="311.5" y2="226.015" gradientUnits="userSpaceOnUse">
<stop stop-color="#282E65"/>
<stop offset="1" stop-color="#5BD8FF"/>
</linearGradient>
<linearGradient id="paint2_linear_38_622" x1="150.913" y1="162.895" x2="233.48" y2="213.866" gradientUnits="userSpaceOnUse">
<stop stop-color="#147FB0"/>
<stop offset="1" stop-color="#30BEEB"/>
</linearGradient>
<linearGradient id="paint3_linear_38_622" x1="135.25" y1="107.375" x2="231.5" y2="106.125" gradientUnits="userSpaceOnUse">
<stop stop-color="#FCAC5D"/>
<stop offset="1" stop-color="#FCDC5D"/>
</linearGradient>
<linearGradient id="paint4_linear_38_622" x1="208.375" y1="109.875" x2="162.125" y2="111.75" gradientUnits="userSpaceOnUse">
<stop stop-color="#FCDC5D"/>
<stop offset="1" stop-color="#FCAC5D"/>
</linearGradient>
<linearGradient id="paint5_linear_38_622" x1="232.125" y1="83" x2="192.75" y2="53" gradientUnits="userSpaceOnUse">
<stop stop-color="#FCAC5D"/>
<stop offset="1" stop-color="#FCF45D"/>
</linearGradient>
<clipPath id="clip0_38_622">
<rect width="173" height="11" fill="white" transform="translate(92 242)"/>
</clipPath>
</defs>
</svg>
